<?xml version="1.0" standalone="no"?>
<!DOCTYPE svg PUBLIC "-//W3C//DTD SVG 20010904//EN"
 "http://www.w3.org/TR/2001/REC-SVG-20010904/DTD/svg10.dtd">
<svg version="1.0" xmlns="http://www.w3.org/2000/svg"
 width="288.000000pt" height="175.000000pt" viewBox="0 0 288.000000 175.000000"
 preserveAspectRatio="xMidYMid meet">

<g transform="translate(0.000000,175.000000) scale(0.100000,-0.100000)"
fill="#000000" stroke="none">
<path d="M0 875 l0 -875 1440 0 1440 0 0 875 0 875 -1440 0 -1440 0 0 -875z
m2774 744 c-107 -163 -194 -345 -194 -408 0 -43 -33 -78 -83 -86 -68 -11 -119
-39 -165 -89 -81 -88 -119 -228 -108 -403 l6 -102 -38 -10 c-20 -5 -50 -13
-67 -17 -19 -5 -66 -43 -131 -108 -112 -113 -169 -208 -181 -303 l-6 -51 -59
43 c-128 95 -245 128 -376 106 -93 -16 -109 -24 -191 -96 -35 -31 -68 -54 -75
-52 -6 2 -26 30 -44 63 -70 124 -134 166 -263 172 l-88 4 -84 -46 c-99 -54
-127 -57 -156 -18 -38 50 -56 65 -117 93 -62 28 -148 47 -238 51 l-50 3 85 61
c90 66 255 230 306 304 16 25 40 65 53 90 12 25 24 47 26 49 3 3 19 -9 37 -26
180 -169 424 -279 648 -290 99 -5 108 -4 128 16 26 26 27 68 6 178 -8 43 -15
81 -15 85 0 4 16 -4 36 -17 44 -30 63 -31 97 -5 14 11 36 20 50 20 34 0 75 35
79 68 3 25 6 22 41 -35 41 -66 79 -103 107 -103 43 0 153 153 255 355 80 158
94 207 102 353 3 56 7 102 8 102 1 0 22 -7 46 -16 122 -45 357 -4 554 97 61
31 111 56 112 55 2 -2 -22 -40 -53 -87z"/>
</g>
</svg>
